<?xml version="1.0" encoding="utf-8"?>
<!-- Generator: Adobe Illustrator 19.1.0, SVG Export Plug-In . SVG Version: 6.00 Build 0)  -->
<svg version="1.1" id="Calque_1" xmlns="http://www.w3.org/2000/svg" xmlns:xlink="http://www.w3.org/1999/xlink" x="0px" y="0px"
	 viewBox="0 0 101.2 226.7" style="enable-background:new 0 0 101.2 226.7;" xml:space="preserve">
<style type="text/css">
	.st0{fill:#FFFFFF;}
</style>
<path class="st0" d="M95,130.6c6.8-20.3,6.6-39.1,5.8-49.4C100,70.8,95,64.7,95,64.7c2.5-12.2,1.8-16.2,0-24.9
	c-1.8-8.6-7.4-12.2-13.2-14.2c-5.8-2-12.7,1.5-12.7,1.5s0.5-2.5,1.6-4.1c1.1-1.5,8-1.8,11.8-2c3.8-0.3,3.3-1.5,5.6-6.6
	c2.3-5.1,1.3-12.7,1.3-12.7C83.8,0.3,56.2,0,50.6,0S17.4,0.3,11.8,1.8c0,0-1,7.6,1.3,12.7c2.3,5.1,1.8,6.3,5.6,6.6
	c3.8,0.3,10.8,0.5,11.8,2c1.1,1.5,1.6,4.1,1.6,4.1s-6.8-3.6-12.7-1.5c-5.8,2-11.4,5.6-13.2,14.2c-1.8,8.6-2.5,12.7,0,24.9
	c0,0-5.1,6.1-5.8,16.5c-0.8,10.4-1,29.2,5.8,49.4c6.8,20.3,13.1,28.7,18.5,36.3c5.3,7.6,9.4,11.2,8.6,16.7
	c-0.8,5.6-3.3,13.9-10.1,21.3c-6.8,7.4-9.4,10.7-6.6,13.4c2.8,2.8,12.8,8.4,34,8.4s31.2-5.6,34-8.4c2.8-2.8,0.3-6.1-6.6-13.4
	c-6.8-7.4-9.4-15.7-10.1-21.3c-0.8-5.6,3.3-9.1,8.6-16.7C81.8,159.3,88.1,150.9,95,130.6z M28.8,54.3c-1.5,1-13.2,4.3-13.2,4.3
	s-0.3,2.8-1-7.1s2-16.5,7.1-18c4.1-1.2,11,0.6,11.2,3.8C33.7,46.1,30.3,53.3,28.8,54.3z M68.3,37.3c0.3-3.2,7.1-5,11.2-3.8
	c5.1,1.5,7.9,8.1,7.1,18s-1,7.1-1,7.1s-11.7-3.3-13.2-4.3C70.9,53.3,67.5,46.1,68.3,37.3z"/>
</svg>
